<svg width="544" height="923" viewBox="0 0 544 923" fill="none" xmlns="http://www.w3.org/2000/svg">
    <g clip-path="url(#clip0_630_4283)">
        <rect width="544" height="923" rx="20" fill="#0D111C" />
        <rect width="544" height="967" fill="url(#paint0_linear_630_4283)" />
        <path
            d="M213.693 34.6906C214.72 35.7016 215.233 37.1933 215.233 39.1657C215.233 41.138 214.72 42.638 213.693 43.6656C212.683 44.6767 211.251 45.1822 209.396 45.1822H205.993V50.8507H202.54V33.1492H209.396C211.251 33.1492 212.683 33.663 213.693 34.6906ZM211.78 39.1657C211.78 37.2099 210.928 36.232 209.222 36.232H205.993V42.0745H209.222C210.05 42.0745 210.679 41.8507 211.11 41.4032C211.557 40.9557 211.78 40.2099 211.78 39.1657Z"
            fill="white" />
        <path
            d="M229.042 50.8507H222.783C220.796 50.8507 219.396 50.5109 218.585 49.8313C217.79 49.1352 217.392 47.917 217.392 46.1767V33.1492L229.042 33.1492V36.232L220.845 36.232V40.3839H226.583L226.335 43.4668H220.845V45.9281C220.845 46.6242 221.003 47.1048 221.317 47.37C221.632 47.6352 222.203 47.7678 223.031 47.7678H229.042V50.8507Z"
            fill="white" />
        <path
            d="M245.076 50.8507H241.076L237.624 44.2872H235.14V50.8507H231.687V36.953C231.687 35.627 231.993 34.6657 232.606 34.0691C233.219 33.4558 234.245 33.1492 235.686 33.1492H238.617C240.373 33.1492 241.764 33.6878 242.79 34.7652C243.834 35.8259 244.355 37.1768 244.355 38.8176C244.355 40.011 244.041 41.0469 243.411 41.9253C242.799 42.7872 242.037 43.3839 241.126 43.7154L245.076 50.8507ZM238.394 41.4032C239.122 41.4032 239.719 41.1546 240.182 40.6574C240.662 40.1436 240.903 39.5138 240.903 38.7679C240.903 38.0055 240.671 37.3922 240.207 36.9281C239.76 36.4641 239.155 36.232 238.394 36.232H236.68C235.653 36.232 235.14 36.7541 235.14 37.7983V41.4032H238.394Z"
            fill="white" />
        <path
            d="M258.844 36.232H252.609C251.881 36.232 251.367 36.3729 251.069 36.6547C250.788 36.9364 250.647 37.4254 250.647 38.1215V40.5828H257.13L256.882 43.6656H250.647V50.8507H247.194V36.7541C247.194 35.4447 247.476 34.5166 248.039 33.9696C248.619 33.4226 249.604 33.1492 250.995 33.1492H258.844V36.232Z"
            fill="white" />
        <path
            d="M272.751 50.8507H266.491C264.504 50.8507 263.104 50.5109 262.293 49.8313C261.498 49.1352 261.101 47.917 261.101 46.1767V33.1492L272.751 33.1492V36.232L264.553 36.232V40.3839L270.291 40.3839L270.043 43.4668H264.553V45.9281C264.553 46.6242 264.711 47.1048 265.025 47.37C265.34 47.6352 265.911 47.7678 266.739 47.7678H272.751V50.8507Z"
            fill="white" />
        <path
            d="M284.338 43.9888H287.542C287.542 46.243 286.979 47.975 285.853 49.1849C284.727 50.3949 283.137 50.9998 281.084 50.9998C276.563 50.9998 274.302 48.3396 274.302 43.0192V41.5275C274.302 37.3342 275.462 34.7072 277.78 33.6464C278.691 33.2155 279.792 33 281.084 33C282.971 33 284.503 33.5221 285.679 34.5663C286.871 35.5939 287.467 37.0856 287.467 39.0414H284.238C284.056 38.0635 283.733 37.3259 283.269 36.8287C282.806 36.3315 282.077 36.0828 281.084 36.0828C279.924 36.0828 279.063 36.4475 278.5 37.1768C278.103 37.6906 277.871 38.569 277.805 39.8121C277.772 40.2099 277.755 40.7485 277.755 41.4281V42.9695C277.755 44.8756 278.02 46.1767 278.55 46.8728C279.096 47.5689 279.941 47.917 281.084 47.917C282.243 47.917 283.038 47.6021 283.468 46.9722C283.915 46.3258 284.205 45.3314 284.338 43.9888Z"
            fill="white" />
        <path d="M301.239 36.232H296.495V50.8507H293.042V36.232H288.322V33.1492H301.239V36.232Z" fill="white" />
        <path
            d="M319.365 34.6906C320.392 35.7016 320.905 37.1933 320.905 39.1657C320.905 41.138 320.392 42.638 319.365 43.6656C318.355 44.6767 316.922 45.1822 315.068 45.1822H311.665V50.8507H308.212V33.1492L315.068 33.1492C316.922 33.1492 318.355 33.663 319.365 34.6906ZM317.452 39.1657C317.452 37.2099 316.599 36.232 314.894 36.232L311.665 36.232V42.0745H314.894C315.722 42.0745 316.351 41.8507 316.782 41.4032C317.229 40.9557 317.452 40.2099 317.452 39.1657Z"
            fill="white" />
        <path
            d="M336.031 41.1795V42.522C336.031 45.4888 335.468 47.6435 334.342 48.986C333.232 50.3286 331.444 50.9998 328.976 50.9998C326.509 50.9998 324.72 50.3286 323.611 48.986C322.518 47.6435 321.971 45.464 321.971 42.4474V41.1546C321.971 38.4033 322.526 36.3563 323.636 35.0138C324.762 33.6713 326.534 33 328.951 33C331.386 33 333.174 33.6796 334.317 35.0387C335.459 36.3978 336.031 38.4447 336.031 41.1795ZM332.578 42.4474V41.5275C332.578 39.9364 332.379 38.6685 331.982 37.7237C331.518 36.6298 330.525 36.0828 329.001 36.0828C327.461 36.0828 326.459 36.6298 325.995 37.7237C325.615 38.6187 325.424 39.8867 325.424 41.5275V42.4474C325.424 44.5855 325.722 46.0275 326.318 46.7734C326.55 47.0883 326.89 47.3617 327.337 47.5938C327.8 47.8093 328.347 47.917 328.976 47.917C329.622 47.917 330.169 47.8093 330.616 47.5938C331.063 47.3783 331.41 47.1131 331.659 46.7982C331.907 46.4833 332.098 46.0689 332.23 45.5551C332.462 44.743 332.578 43.7071 332.578 42.4474Z"
            fill="white" />
        <path
            d="M351.271 41.1795V42.522C351.271 45.4888 350.708 47.6435 349.582 48.986C348.473 50.3286 346.684 50.9998 344.217 50.9998C341.749 50.9998 339.961 50.3286 338.851 48.986C337.758 47.6435 337.212 45.464 337.212 42.4474V41.1546C337.212 38.4033 337.767 36.3563 338.876 35.0138C340.002 33.6713 341.774 33 344.192 33C346.626 33 348.415 33.6796 349.557 35.0387C350.7 36.3978 351.271 38.4447 351.271 41.1795ZM347.819 42.4474V41.5275C347.819 39.9364 347.62 38.6685 347.222 37.7237C346.759 36.6298 345.765 36.0828 344.242 36.0828C342.702 36.0828 341.7 36.6298 341.236 37.7237C340.855 38.6187 340.665 39.8867 340.665 41.5275V42.4474C340.665 44.5855 340.963 46.0275 341.559 46.7734C341.791 47.0883 342.13 47.3617 342.577 47.5938C343.041 47.8093 343.587 47.917 344.217 47.917C344.863 47.917 345.409 47.8093 345.856 47.5938C346.303 47.3783 346.651 47.1131 346.899 46.7982C347.148 46.4833 347.338 46.0689 347.471 45.5551C347.703 44.743 347.819 43.7071 347.819 42.4474Z"
            fill="white" />
        <path
            d="M364.45 50.8507H359.184C357.197 50.8507 355.756 50.4695 354.862 49.707C353.984 48.928 353.545 47.6684 353.545 45.9281V33.1492H356.998V45.9281C356.998 46.6242 357.155 47.1048 357.47 47.37C357.785 47.6352 358.356 47.7678 359.184 47.7678H364.45V50.8507Z"
            fill="white" />
        <path
            d="M194.821 33.0879H192.468C191.742 33.0879 191.153 33.6521 191.153 34.3482V36.6041C191.153 37.3001 191.742 37.8644 192.468 37.8644H194.821C195.547 37.8644 196.136 37.3001 196.136 36.6041V34.3482C196.136 33.6521 195.547 33.0879 194.821 33.0879Z"
            fill="#4C82FB" />
        <path
            d="M185.715 38.0649H187.76C188.607 38.1121 189.412 38.4394 190.044 38.9934L190.121 39.0771C190.688 39.696 191.022 40.4873 191.066 41.3188V43.318C191.066 43.6662 191.207 44.0003 191.458 44.2466C191.709 44.4929 192.049 44.6312 192.404 44.6312H194.798C195.153 44.6312 195.493 44.4929 195.744 44.2466C195.995 44.0003 196.136 43.6662 196.136 43.318V40.9675C196.136 40.6192 195.995 40.2852 195.744 40.0389C195.493 39.7926 195.153 39.6542 194.798 39.6542H192.762C191.915 39.6103 191.109 39.2826 190.478 38.7257L190.393 38.6504C189.828 38.0303 189.494 37.2397 189.447 36.4087V34.4011C189.447 34.0529 189.307 33.7188 189.056 33.4725C188.805 33.2263 188.465 33.0879 188.11 33.0879H185.715C185.361 33.0879 185.02 33.2263 184.77 33.4725C184.519 33.7188 184.378 34.0529 184.378 34.4011V36.7517C184.378 37.0999 184.519 37.434 184.77 37.6802C185.02 37.9265 185.361 38.0649 185.715 38.0649Z"
            fill="#1DB954" />
        <path
            d="M195.02 46.1279H193.021C192.189 46.076 191.401 45.7439 190.79 45.1879L190.565 44.9672C190.011 44.3623 189.684 43.589 189.641 42.7764V40.8146C189.638 40.4749 189.5 40.1497 189.255 39.9095C189.011 39.6693 188.679 39.5334 188.333 39.5313H186.335C185.51 39.4972 184.722 39.1854 184.103 38.6484L183.879 38.4277C183.324 37.8228 182.998 37.0496 182.954 36.237V34.2834C182.954 33.943 182.817 33.6166 182.571 33.3759C182.326 33.1352 181.994 33 181.647 33H179.307C178.961 33 178.628 33.1352 178.383 33.3759C178.138 33.6166 178 33.943 178 34.2834V36.5803C178 36.9207 178.138 37.2472 178.383 37.4878C178.628 37.7285 178.961 37.8637 179.307 37.8637H181.297C182.138 37.9014 182.938 38.2251 183.562 38.7792L183.787 38.9999C184.34 39.6059 184.666 40.3785 184.711 41.1906V43.1525C184.713 43.4922 184.852 43.8174 185.097 44.0576C185.341 44.2978 185.673 44.4337 186.019 44.4358H188.017C188.835 44.4861 189.613 44.8058 190.224 45.3432L190.448 45.5639C191.001 46.1699 191.327 46.9425 191.373 47.7546V49.7164C191.375 50.0562 191.513 50.3813 191.758 50.6215C192.003 50.8618 192.334 50.9976 192.68 50.9998H195.028C195.374 50.9976 195.705 50.8618 195.95 50.6215C196.195 50.3813 196.333 50.0562 196.335 49.7164V47.4113C196.333 47.0702 196.193 46.7437 195.947 46.5033C195.701 46.2628 195.367 46.1279 195.02 46.1279Z"
            fill="#4C82FB" />
        <path
            d="M181.814 46.2231H179.367C178.612 46.2231 178 46.7874 178 47.4835V49.7393C178 50.4354 178.612 50.9997 179.367 50.9997H181.814C182.57 50.9997 183.182 50.4354 183.182 49.7393V47.4835C183.182 46.7874 182.57 46.2231 181.814 46.2231Z"
            fill="#4C82FB" />
        <path
            d="M188.244 46.0228H186.242C185.41 45.9789 184.617 45.6513 183.997 45.0944L183.914 45.0191C183.354 44.3946 183.026 43.5975 182.984 42.7606V40.7531C182.98 40.4148 182.845 40.0912 182.608 39.8496C182.371 39.6081 182.049 39.4673 181.711 39.4565H179.315C178.966 39.4565 178.632 39.5949 178.385 39.8412C178.139 40.0875 178 40.4215 178 40.7698V43.1203C178 43.4686 178.139 43.8026 178.385 44.0489C178.632 44.2952 178.966 44.4335 179.315 44.4335H181.325C182.157 44.4808 182.949 44.808 183.57 45.362L183.646 45.4457C184.203 46.0647 184.531 46.856 184.575 47.6874V49.6866C184.575 49.8598 184.61 50.0312 184.676 50.1911C184.743 50.351 184.84 50.4961 184.963 50.6182C185.086 50.7402 185.232 50.8368 185.393 50.9023C185.553 50.9678 185.725 51.001 185.899 50.9999H188.244C188.593 50.9999 188.927 50.8615 189.174 50.6152C189.421 50.369 189.559 50.0349 189.559 49.6866V47.3361C189.559 46.9878 189.421 46.6538 189.174 46.4075C188.927 46.1612 188.593 46.0228 188.244 46.0228Z"
            fill="#1DB954" />
        <text font-family="Arial" font-size="32px" font-weight="600" x="135" y="94" fill="url(#paint1_linear_630_4283)">Onchain Madness</text>

        <rect x="21.5" y="124.5" width="237" height="266" rx="9.5" fill="#0D111C" stroke="#1C253C" />
        <rect x="21.5" y="412.5" width="237" height="266" rx="9.5" fill="#0D111C" stroke="#1C253C" />
        <rect x="285.5" y="124.5" width="237" height="266" rx="9.5" fill="#0D111C" stroke="#1C253C" />
        <rect x="285.5" y="412.5" width="237" height="266" rx="9.5" fill="#0D111C" stroke="#1C253C" />
        <rect x="22.5" y="708.5" width="500" height="128" rx="9.5" fill="#0D111C" stroke="#1C253C" />


        <rect x="38.5" y="206.5" width="100" height="20" rx="4.5" fill="#1B2236" />
        <rect x="38.5" y="229.5" width="100" height="21" rx="4.5" fill="#1B2236" />
        <rect x="141.5" y="159.5" width="100" height="21" rx="4.5" fill="#1B2236" />
        <rect x="141.5" y="183.5" width="100" height="20" rx="4.5" fill="#1B2236" />
        <rect x="141.5" y="206.5" width="100" height="20" rx="4.5" fill="#1B2236" />
        <rect x="141.5" y="229.5" width="100" height="21" rx="4.5" fill="#1B2236" />
        <rect x="38.5" y="305.5" width="100" height="20" rx="4.5" fill="#1B2236" />
        <rect x="38.5" y="281.5" width="100" height="21" rx="4.5" fill="#1B2236" />
        <rect x="141.5" y="281.5" width="100" height="21" rx="4.5" fill="#1B2236" />
        <rect x="141.5" y="305.5" width="100" height="20" rx="4.5" fill="#1B2236" />
        <rect x="38.5" y="356.5" width="100" height="21" rx="4.5" fill="#1B2236" />
        <rect x="141.5" y="356.5" width="100" height="21" rx="4.5" fill="#1B2236" />
        <rect x="38.5" y="447.5" width="100" height="21" rx="4.5" fill="#1B2236" />
        <rect x="38.5" y="471.5" width="100" height="20" rx="4.5" fill="#1B2236" />
        <rect x="38.5" y="494.5" width="100" height="20" rx="4.5" fill="#1B2236" />
        <rect x="38.5" y="517.5" width="100" height="21" rx="4.5" fill="#1B2236" />
        <rect x="141.5" y="447.5" width="100" height="21" rx="4.5" fill="#1B2236" />
        <rect x="141.5" y="471.5" width="100" height="20" rx="4.5" fill="#1B2236" />
        <rect x="141.5" y="494.5" width="100" height="20" rx="4.5" fill="#1B2236" />
        <rect x="141.5" y="517.5" width="100" height="21" rx="4.5" fill="#1B2236" />
        <rect x="38.5" y="569.5" width="100" height="21" rx="4.5" fill="#1B2236" />
        <rect x="38.5" y="593.5" width="100" height="20" rx="4.5" fill="#1B2236" />
        <rect x="141.5" y="569.5" width="100" height="21" rx="4.5" fill="#1B2236" />
        <rect x="141.5" y="593.5" width="100" height="20" rx="4.5" fill="#1B2236" />
        <rect x="38.5" y="644.5" width="100" height="21" rx="4.5" fill="#1B2236" />
        <rect x="141.5" y="644.5" width="100" height="21" rx="4.5" fill="#1B2236" />
        <rect x="302.5" y="159.5" width="100" height="21" rx="4.5" fill="#1B2236" />
        <rect x="302.5" y="183.5" width="100" height="20" rx="4.5" fill="#1B2236" />
        <rect x="302.5" y="206.5" width="100" height="20" rx="4.5" fill="#1B2236" />
        <rect x="302.5" y="229.5" width="100" height="21" rx="4.5" fill="#1B2236" />
        <rect x="405.5" y="159.5" width="100" height="21" rx="4.5" fill="#1B2236" />
        <rect x="405.5" y="183.5" width="100" height="20" rx="4.5" fill="#1B2236" />
        <rect x="405.5" y="206.5" width="100" height="20" rx="4.5" fill="#1B2236" />
        <rect x="405.5" y="229.5" width="100" height="21" rx="4.5" fill="#1B2236" />
        <rect x="302.5" y="281.5" width="100" height="21" rx="4.5" fill="#1B2236" />
        <rect x="302.5" y="305.5" width="100" height="20" rx="4.5" fill="#1B2236" />
        <rect x="405.5" y="281.5" width="100" height="21" rx="4.5" fill="#1B2236" />
        <rect x="405.5" y="305.5" width="100" height="20" rx="4.5" fill="#1B2236" />
        <rect x="302.5" y="356.5" width="100" height="21" rx="4.5" fill="#1B2236" />
        <rect x="405.5" y="356.5" width="100" height="21" rx="4.5" fill="#1B2236" />
        <rect x="302.5" y="447.5" width="100" height="21" rx="4.5" fill="#1B2236" />
        <rect x="302.5" y="471.5" width="100" height="20" rx="4.5" fill="#1B2236" />
        <rect x="302.5" y="494.5" width="100" height="20" rx="4.5" fill="#1B2236" />
        <rect x="302.5" y="517.5" width="100" height="21" rx="4.5" fill="#1B2236" />
        <rect x="405.5" y="447.5" width="100" height="21" rx="4.5" fill="#1B2236" />
        <rect x="405.5" y="471.5" width="100" height="20" rx="4.5" fill="#1B2236" />
        <rect x="405.5" y="494.5" width="100" height="20" rx="4.5" fill="#1B2236" />
        <rect x="405.5" y="517.5" width="100" height="21" rx="4.5" fill="#1B2236" />
        <rect x="302.5" y="569.5" width="100" height="21" rx="4.5" fill="#1B2236" />
        <rect x="302.5" y="593.5" width="100" height="20" rx="4.5" fill="#1B2236" />
        <rect x="302.5" y="644.5" width="100" height="21" rx="4.5" fill="#1B2236" />
        <rect x="405.5" y="569.5" width="100" height="21" rx="4.5" fill="#1B2236" />
        <rect x="405.5" y="593.5" width="100" height="20" rx="4.5" fill="#1B2236" />
        <rect x="405.5" y="644.5" width="100" height="21" rx="4.5" fill="#1B2236" />
        <rect x="39.5" y="743.5" width="100" height="21" rx="4.5" fill="#1B2236" />
        <rect x="299.5" y="743.5" width="100" height="21" rx="4.5" fill="#1B2236" />
        <rect x="142.5" y="743.5" width="100" height="21" rx="4.5" fill="#1B2236" />
        <rect x="402.5" y="743.5" width="100" height="21" rx="4.5" fill="#1B2236" />
        <rect x="171.5" y="802.5" width="100" height="21" rx="4.5" fill="#1B2236" />
        <rect x="274.5" y="802.5" width="100" height="21" rx="4.5" fill="#1B2236" />
        <rect x="222.5" y="826" width="100" height="21" rx="4.5" fill="#1B2236" />
        
        
        <text font-family="Arial" font-weight="600" font-size="12px" x="38" y="438" fill="#FBBF44">Round 1</text>
        <text font-family="Arial" font-weight="600" font-size="12px" x="38" y="560" fill="#FBBF44">Round 2</text>
        <text font-family="Arial" font-weight="600" font-size="12px" x="38" y="635" fill="#FBBF44">Round 3</text>
        <text font-family="Arial" font-weight="600" font-size="12px" x="38" y="150" fill="#FBBF44">Round 1</text>
        <text font-family="Arial" font-weight="600" font-size="12px" x="38" y="272" fill="#FBBF44">Round 2</text>
        <text font-family="Arial" font-weight="600" font-size="12px" x="38" y="347" fill="#FBBF44">Round 3</text>

        <text font-family="Arial" font-weight="600" font-size="12px" x="302" y="150" fill="#FBBF44">Round 1</text>
        <text font-family="Arial" font-weight="600" font-size="12px" x="302" y="272" fill="#FBBF44">Round 2</text>
        <text font-family="Arial" font-weight="600" font-size="12px" x="302" y="347" fill="#FBBF44">Round 3</text>
        <text font-family="Arial" font-weight="600" font-size="12px" x="302" y="438" fill="#FBBF44">Round 1</text>
        <text font-family="Arial" font-weight="600" font-size="12px" x="302" y="560" fill="#FBBF44">Round 2</text>
        <text font-family="Arial" font-weight="600" font-size="12px" x="302" y="635" fill="#FBBF44">Round 3</text>
        <text font-family="Arial" font-weight="600" font-size="12px" x="109" y="734" fill="#FBBF44">East x West</text>
        <text font-family="Arial" font-weight="600" font-size="12px" x="363" y="734" fill="#FBBF44">North x South</text>
        <text font-family="Arial" font-weight="600" font-size="12px" x="258" y="793" fill="#FBBF44">FINAL</text>

        <rect x="99.5" y="113.5" width="81" height="21" rx="4.5" fill="#1B2236" />
        <text style="font-size:12px;fill:#FBBF44;font-family:Arial;font-weight:600" text-anchor="middle" x="140" y="128" fill="#FBBF44">North</text>
        <rect x="99.5" y="401.5" width="81" height="21" rx="4.5" fill="#1B2236" stroke="#1C253C" />
        <text style="font-size:12px;fill:#FBBF44;font-family:Arial;font-weight:600" text-anchor="middle" x="140" y="416" fill="#FBBF44">East</text>
        <rect x="363.5" y="113.5" width="81" height="21" rx="4.5" fill="#1B2236" stroke="#1C253C" />
        <text style="font-size:12px;fill:#FBBF44;font-family:Arial;font-weight:600" text-anchor="middle" x="404" y="128" fill="#FBBF44">South</text>
        <rect x="363.5" y="401.5" width="81" height="21" rx="4.5" fill="#1B2236" stroke="#1C253C" />
        <text style="font-size:12px;fill:#FBBF44;font-family:Arial;font-weight:600" text-anchor="middle" x="404" y="416" fill="#FBBF44">West</text>
        <rect x="232.5" y="697.5" width="81" height="21" rx="4.5" fill="#1B2236" stroke="#1C253C" />
        <text style="font-size:12px;fill:#FBBF44;font-family:Arial;font-weight:600" text-anchor="middle" x="273" y="712" fill="#FBBF44">Final Four</text>
    </g>
    <g clip-path="url(#clip0_630_4283)">
        <!-- NORTH -->
        <!-- Temos 23 pixels para o gap total da linha de 8 -->
        <rect x="38.5" y="159.5" width="50" height="21" rx="4.5" fill="#7ED321" />
        <text style="font-size:11px;fill:white;font-family:Roboto;font-weight:900" text-anchor="middle" x="63.5" y="174">BAY</text>

        <rect x="38.5" y="183.5" width="50" height="20" rx="4.5" fill="#1B2236" />
        <text font-family="Arial" font-weight="900" text-anchor="middle" font-size="11px" x="63.5" y="198" fill="#7ED321">UNC</text>

        <text font-family="Arial" font-size="12px" x="48" y="220" fill="#98A1C0">Bet 3:</text>
        <text font-family="Arial" font-size="11px" x="83" y="220" fill="white">VILL</text>
        <circle cx="125" cy="216" r="3" fill="#7ED321" />

        <text font-family="Arial" font-size="12px" x="48" y="244" fill="#98A1C0">Bet 4:</text>
        <text font-family="Arial" font-size="11px" x="83" y="244" fill="white">PUR</text>
        <circle cx="125" cy="240" r="3" fill="#FF2E47" />

        <text font-family="Arial" font-size="12px" x="151" y="174" fill="#98A1C0">Bet 5:</text>
        <text font-family="Arial" font-size="11px" x="186" y="174" fill="white">UNT</text>
        <circle cx="228" cy="170" r="3" fill="#7ED321" />

        <text font-family="Arial" font-size="12px" x="151" y="198" fill="#98A1C0">Bet 6:</text>
        <text font-family="Arial" font-size="11px" x="186" y="198" fill="white">USU</text>
        <circle cx="228" cy="194" r="3" fill="#FF2E47" />

        <text font-family="Arial" font-size="12px" x="151" y="221" fill="#98A1C0">Bet 7:</text>
        <text font-family="Arial" font-size="11px" x="186" y="221" fill="white">COLG</text>
        <circle cx="228" cy="216" r="3" fill="#7ED321" />

        <text font-family="Arial" font-size="12px" x="151" y="244" fill="#98A1C0">Bet 8:</text>
        <text font-family="Arial" font-size="11px" x="186" y="244" fill="white">VT</text>
        <circle cx="228" cy="240" r="3" fill="#7ED321" />

        <text font-family="Arial" font-size="12px" x="48" y="320" fill="#98A1C0">Bet 2:</text>
        <text font-family="Arial" font-size="11px" x="83" y="320" fill="white">PUR</text>
        <circle cx="125" cy="316" r="3" fill="#FF2E47" />

        <text font-family="Arial" font-size="12px" x="48" y="296" fill="#98A1C0">Bet 1:</text>
        <text font-family="Arial" font-size="11px" x="83" y="296" fill="white">UNC</text>
        <circle cx="125" cy="292" r="3" fill="#7ED321" />

        <text font-family="Arial" font-size="12px" x="151" y="296" fill="#98A1C0">Bet 3:</text>
        <text font-family="Arial" font-size="11px" x="186" y="296" fill="white">USU</text>
        <circle cx="228" cy="292" r="3" fill="#7ED321" />

        <text font-family="Arial" font-size="12px" x="151" y="320" fill="#98A1C0">Bet 4:</text>
        <text font-family="Arial" font-size="11px" x="186" y="320" fill="white">COLG</text>
        <circle cx="228" cy="316" r="3" fill="#FF2E47" />

        <text font-family="Arial" font-size="12px" x="48" y="371" fill="#98A1C0">Bet 1:</text>
        <text font-family="Arial" font-size="11px" x="83" y="371" fill="white">PUR</text>
        <circle cx="125" cy="367" r="3" fill="#7ED321" />

        <text font-family="Arial" font-size="12px" x="151" y="371" fill="#98A1C0">Bet 2:</text>
        <text font-family="Arial" font-size="11px" x="186" y="371" fill="white">USU</text>
        <circle cx="228" cy="367" r="3" fill="#7ED321" />

        <!-- EAST -->
        <text font-family="Arial" font-size="12px" x="48" y="462" fill="#98A1C0">Bet 1:</text>
        <text font-family="Arial" font-size="11px" x="83" y="462" fill="white">GONZ</text>
        <circle cx="125" cy="458" r="3" fill="#7ED321" />

        <text font-family="Arial" font-size="12px" x="48" y="486" fill="#98A1C0">Bet 2:</text>
        <text font-family="Arial" font-size="11px" x="83" y="486" fill="white">OKLA</text>
        <circle cx="125" cy="482" r="3" fill="#FF2E47" />

        <text font-family="Arial" font-size="12px" x="48" y="509" fill="#98A1C0">Bet 3:</text>
        <text font-family="Arial" font-size="11px" x="83" y="509" fill="white">CREI</text>
        <circle cx="125" cy="504" r="3" fill="#7ED321" />

        <text font-family="Arial" font-size="12px" x="48" y="532" fill="#98A1C0">Bet 4:</text>
        <text font-family="Arial" font-size="11px" x="83" y="532" fill="white">UVA</text>
        <circle cx="125" cy="528" r="3" fill="#FF2E47" />

        <text font-family="Arial" font-size="12px" x="151" y="462" fill="#98A1C0">Bet 5:</text>
        <text font-family="Arial" font-size="11px" x="186" y="462" fill="white">OHIO</text>
        <circle cx="228" cy="458" r="3" fill="#7ED321" />

        <text font-family="Arial" font-size="12px" x="151" y="486" fill="#98A1C0">Bet 6:</text>
        <text font-family="Arial" font-size="11px" x="186" y="486" fill="white">EWU</text>
        <circle cx="228" cy="482" r="3" fill="#FF2E47" />

        <text font-family="Arial" font-size="12px" x="151" y="509" fill="#98A1C0">Bet 7:</text>
        <text font-family="Arial" font-size="11px" x="186" y="509" fill="white">VCU</text>
        <circle cx="228" cy="504" r="3" fill="#7ED321" />

        <text font-family="Arial" font-size="12px" x="151" y="532" fill="#98A1C0">Bet 8:</text>
        <text font-family="Arial" font-size="11px" x="186" y="532" fill="white">IOWA</text>
        <circle cx="228" cy="528" r="3" fill="#FF2E47" />
        <text font-family="Arial" font-size="12px" x="48" y="584" fill="#98A1C0">Bet 1:</text>
        <text font-family="Arial" font-size="11px" x="83" y="584" fill="white">OKLA</text>
        <circle cx="125" cy="580" r="3" fill="#7ED321" />

        <text font-family="Arial" font-size="12px" x="48" y="608" fill="#98A1C0">Bet 2:</text>
        <text font-family="Arial" font-size="11px" x="83" y="608" fill="white">UVA</text>
        <circle cx="125" cy="604" r="3" fill="#FF2E47" />

        <text font-family="Arial" font-size="12px" x="151" y="584" fill="#98A1C0">Bet 3:</text>
        <text font-family="Arial" font-size="11px" x="186" y="584" fill="white">OHIO</text>
        <circle cx="228" cy="580" r="3" fill="#7ED321" />

        <text font-family="Arial" font-size="12px" x="151" y="608" fill="#98A1C0">Bet 4:</text>
        <text font-family="Arial" font-size="11px" x="186" y="608" fill="white">IOWA</text>
        <circle cx="228" cy="604" r="3" fill="#FF2E47" />
        <text font-family="Arial" font-size="12px" x="48" y="659" fill="#98A1C0">Bet 1:</text>
        <text font-family="Arial" font-size="11px" x="83" y="659" fill="white">UVA</text>
        <circle cx="125" cy="655" r="3" fill="#7ED321" />

        <text font-family="Arial" font-size="12px" x="151" y="659" fill="#98A1C0">Bet 2:</text>
        <text font-family="Arial" font-size="11px" x="186" y="659" fill="white">OHIO</text>
        <circle cx="228" cy="655" r="3" fill="#7ED321" />




        <!-- SOUTH -->
        <text font-family="Arial" font-size="12px" x="312" y="174" fill="#98A1C0">Bet 1:</text>
        <text font-family="Arial" font-size="11px" x="347" y="174" fill="white">ILL</text>
        <circle cx="389" cy="170" r="3" fill="#7ED321" />
        <text font-family="Arial" font-size="12px" x="312" y="198" fill="#98A1C0">Bet 2:</text>
        <text font-family="Arial" font-size="11px" x="347" y="198" fill="white">L-IL</text>
        <circle cx="389" cy="194" r="3" fill="#FF2E47" />
        <text font-family="Arial" font-size="12px" x="312" y="221" fill="#98A1C0">Bet 3:</text>
        <text font-family="Arial" font-size="11px" x="347" y="221" fill="white">TENN</text>
        <circle cx="389" cy="216" r="3" fill="#7ED321" />

        <text font-family="Arial" font-size="12px" x="312" y="244" fill="#98A1C0">Bet 4:</text>
        <text font-family="Arial" font-size="11px" x="347" y="244" fill="white">OKST</text>
        <circle cx="389" cy="240" r="3" fill="#FF2E47" />

        <text font-family="Arial" font-size="12px" x="415" y="174" fill="#98A1C0">Bet 5:</text>
        <text font-family="Arial" font-size="11px" x="450" y="174" fill="white">SDSU</text>
        <circle cx="492" cy="170" r="3" fill="#7ED321" />

        <text font-family="Arial" font-size="12px" x="415" y="198" fill="#98A1C0">Bet 6:</text>
        <text font-family="Arial" font-size="11px" x="450" y="198" fill="white">WVU</text>
        <circle cx="492" cy="194" r="3" fill="#FF2E47" />

        <text font-family="Arial" font-size="12px" x="415" y="221" fill="#98A1C0">Bet 7:</text>
        <text font-family="Arial" font-size="11px" x="450" y="221" fill="white">CLEM</text>
        <circle cx="492" cy="216" r="3" fill="#7ED321" />

        <text font-family="Arial" font-size="12px" x="415" y="244" fill="#98A1C0">Bet 8:</text>
        <text font-family="Arial" font-size="11px" x="450" y="244" fill="white">HOU</text>
        <circle cx="492" cy="240" r="3" fill="#FF2E47" />
        <text font-family="Arial" font-size="12px" x="312" y="296" fill="#98A1C0">Bet 1:</text>
        <text font-family="Arial" font-size="11px" x="347" y="296" fill="white">ILL</text>
        <circle cx="389" cy="292" r="3" fill="#7ED321" />

        <text font-family="Arial" font-size="12px" x="312" y="320" fill="#98A1C0">Bet 2:</text>
        <text font-family="Arial" font-size="11px" x="347" y="320" fill="white">TENN</text>
        <circle cx="389" cy="316" r="3" fill="#FF2E47" />

        <text font-family="Arial" font-size="12px" x="415" y="296" fill="#98A1C0">Bet 3:</text>
        <text font-family="Arial" font-size="11px" x="450" y="296" fill="white">WVU</text>
        <circle cx="492" cy="292" r="3" fill="#7ED321" />

        <text font-family="Arial" font-size="12px" x="415" y="320" fill="#98A1C0">Bet 4:</text>
        <text font-family="Arial" font-size="11px" x="450" y="320" fill="white">HOU</text>
        <circle cx="492" cy="316" r="3" fill="#FF2E47" />
        <text font-family="Arial" font-size="12px" x="312" y="371" fill="#98A1C0">Bet 1:</text>
        <text font-family="Arial" font-size="11px" x="347" y="371" fill="white">TENN</text>
        <circle cx="389" cy="367" r="3" fill="#7ED321" />

        <text font-family="Arial" font-size="12px" x="415" y="371" fill="#98A1C0">Bet 2:</text>
        <text font-family="Arial" font-size="11px" x="450" y="371" fill="white">HOU</text>
        <circle cx="492" cy="367" r="3" fill="#7ED321" />

        <!--  WEST -->

        <text font-family="Arial" font-size="12px" x="312" y="462" fill="#98A1C0">Bet 1:</text>
        <text font-family="Arial" font-size="11px" x="347" y="462" fill="white">MICH</text>
        <circle cx="389" cy="458" r="3" fill="#7ED321" />

        <text font-family="Arial" font-size="12px" x="312" y="486" fill="#98A1C0">Bet 2:</text>
        <text font-family="Arial" font-size="11px" x="347" y="486" fill="white">LSU</text>
        <circle cx="389" cy="482" r="3" fill="#FF2E47" />

        <text font-family="Arial" font-size="12px" x="312" y="509" fill="#98A1C0">Bet 3:</text>
        <text font-family="Arial" font-size="11px" x="347" y="509" fill="white">COLO</text>
        <circle cx="389" cy="504" r="3" fill="#7ED321" />

        <text font-family="Arial" font-size="12px" x="312" y="532" fill="#98A1C0">Bet 4:</text>
        <text font-family="Arial" font-size="11px" x="347" y="532" fill="white">FSU</text>
        <circle cx="389" cy="528" r="3" fill="#FF2E47" />

        <text font-family="Arial" font-size="12px" x="415" y="462" fill="#98A1C0">Bet 5:</text>
        <text font-family="Arial" font-size="11px" x="450" y="462" fill="white">UNCG</text>
        <circle cx="492" cy="458" r="3" fill="#7ED321" />

        <text font-family="Arial" font-size="12px" x="415" y="486" fill="#98A1C0">Bet 6:</text>
        <text font-family="Arial" font-size="11px" x="450" y="486" fill="white">UCLA</text>
        <circle cx="492" cy="482" r="3" fill="#FF2E47" />

        <text font-family="Arial" font-size="12px" x="415" y="509" fill="#98A1C0">Bet 7:</text>
        <text font-family="Arial" font-size="11px" x="450" y="509" fill="white">TEX</text>
        <circle cx="492" cy="504" r="3" fill="#7ED321" />

        <text font-family="Arial" font-size="12px" x="415" y="532" fill="#98A1C0">Bet 8:</text>
        <text font-family="Arial" font-size="11px" x="450" y="532" fill="white">CONN</text>
        <circle cx="492" cy="528" r="3" fill="#FF2E47" />
        <text font-family="Arial" font-size="12px" x="312" y="584" fill="#98A1C0">Bet 1:</text>
        <text font-family="Arial" font-size="11px" x="347" y="584" fill="white">MICH</text>
        <circle cx="389" cy="580" r="3" fill="#7ED321" />

        <text font-family="Arial" font-size="12px" x="312" y="608" fill="#98A1C0">Bet 2:</text>
        <text font-family="Arial" font-size="11px" x="347" y="608" fill="white">COLO</text>
        <circle cx="389" cy="604" r="3" fill="#FF2E47" />


        <text font-family="Arial" font-size="12px" x="415" y="584" fill="#98A1C0">Bet 3:</text>
        <text font-family="Arial" font-size="11px" x="450" y="584" fill="white">UCLA</text>
        <circle cx="492" cy="580" r="3" fill="#7ED321" />

        <text font-family="Arial" font-size="12px" x="415" y="608" fill="#98A1C0">Bet 4:</text>
        <text font-family="Arial" font-size="11px" x="450" y="608" fill="white">TEX</text>
        <circle cx="492" cy="604" r="3" fill="#FF2E47" />
        <text font-family="Arial" font-size="12px" x="312" y="659" fill="#98A1C0">Bet 1:</text>
        <text font-family="Arial" font-size="11px" x="347" y="659" fill="white">MICH</text>
        <circle cx="389" cy="655" r="3" fill="#7ED321" />

        <text font-family="Arial" font-size="12px" x="415" y="659" fill="#98A1C0">Bet 2:</text>
        <text font-family="Arial" font-size="11px" x="450" y="659" fill="white">TEX</text>
        <circle cx="492" cy="655" r="3" fill="#7ED321" />

        <text font-family="Arial" font-size="12px" x="48" y="758" fill="#98A1C0">Bet 1:</text>
        <text font-family="Arial" font-size="11px" x="84" y="758" fill="white">OHIO</text>
        <circle cx="126" cy="754" r="3" fill="#7ED321" />

        <text font-family="Arial" font-size="12px" x="309" y="758" fill="#98A1C0">Bet 1:</text>
        <text font-family="Arial" font-size="11px" x="344" y="758" fill="white">USU</text>
        <circle cx="386" cy="754" r="3" fill="#7ED321" />


        <text font-family="Arial" font-size="12px" x="152" y="758" fill="#98A1C0">Bet 2:</text>
        <text font-family="Arial" font-size="11px" x="187" y="758" fill="white">TEX</text>
        <circle cx="229" cy="754" r="3" fill="#7ED321" />

        <text font-family="Arial" font-size="12px" x="412" y="758" fill="#98A1C0">Bet 2:</text>
        <text font-family="Arial" font-size="11px" x="447" y="758" fill="white">HOU</text>
        <circle cx="489" cy="754" r="3" fill="#7ED321" />

        <text font-family="Arial" font-size="12px" x="181" y="817" fill="#98A1C0">Bet 1:</text>
        <text font-family="Arial" font-size="11px" x="216" y="817" fill="white">TEX</text>
        <circle cx="258" cy="813" r="3" fill="#7ED321" />

        <text font-family="Arial" font-size="12px" x="284" y="817" fill="#98A1C0">Bet 2:</text>
        <text font-family="Arial" font-size="11px" x="319" y="817" fill="white">HOU</text>
        <circle cx="361" cy="813" r="3" fill="#7ED321" />

        <text font-family="Arial" font-size="12px" x="232" y="840.5" fill="#98A1C0">Bet 1:</text>
        <text font-family="Arial" font-size="11px" x="267" y="840.5" fill="white">TEX</text>
        <circle cx="309" cy="836.5" r="3" fill="#7ED321" />
    </g>

    <defs>
        <linearGradient id="paint0_linear_630_4283" x1="272" y1="0" x2="272" y2="967" gradientUnits="userSpaceOnUse">
            <stop stop-color="#202738" />
            <stop offset="1" stop-color="#070816" />
        </linearGradient>
        <linearGradient id="paint1_linear_630_4283" x1="133" y1="95" x2="134.024" y2="62.2968"
            gradientUnits="userSpaceOnUse">
            <stop offset="0.1" stop-color="#1DB954" />
            <stop offset="1" stop-color="#0062FF" />
        </linearGradient>
        <clipPath id="clip0_630_4283">
            <rect width="544" height="923" rx="20" fill="white" />
        </clipPath>
    </defs>
</svg>