<svg width="850" height="1329" viewBox="0 0 850 1329" fill="none" xmlns="http://www.w3.org/2000/svg">
    <rect width="850" height="1329" rx="32" fill="#030712" />
    <!-- fundo -->
    <path d="m 40,29 h 770 v 1215 c 0,8.84 -7.163,16 -16,16 H 56 c -8.8366,0 -16,-7.16 -16,-16 z" fill="#111827" />
    <!-- topo -->
    <path d="M0 32C0 14.3269 14.3269 0 32 0H818C835.673 0 850 14.3269 850 32V121H0V32Z"
        fill="url(#paint0_linear_3468_11744)" />
    <path d="M0 32C0 14.3269 14.3269 0 32 0H818C835.673 0 850 14.3269 850 32V121H0V32Z" fill="black"
        fill-opacity="0.2" />
    <rect x="525" y="32" width="293" height="57" rx="16" fill="white" fill-opacity="0.2" />

    <!-- logo -->
    <path
        d="M123.562 49.5427V50.7843C123.562 53.528 123.057 55.5206 122.046 56.7621C121.049 58.0037 119.443 58.6245 117.228 58.6245C115.012 58.6245 113.406 58.0037 112.41 56.7621C111.428 55.5206 110.938 53.505 110.938 50.7153V49.5197C110.938 46.9753 111.436 45.0824 112.432 43.8408C113.443 42.5992 115.034 41.9785 117.205 41.9785C119.391 41.9785 120.997 42.6069 122.023 43.8638C123.049 45.1207 123.562 47.0137 123.562 49.5427ZM120.462 50.7153V49.8646C120.462 48.3932 120.283 47.2206 119.927 46.3469C119.51 45.3353 118.618 44.8294 117.25 44.8294C115.867 44.8294 114.967 45.3353 114.551 46.3469C114.209 47.1746 114.038 48.3472 114.038 49.8646V50.7153C114.038 52.6926 114.306 54.0261 114.841 54.7159C115.049 55.0071 115.354 55.26 115.756 55.4746C116.172 55.6739 116.663 55.7735 117.228 55.7735C117.808 55.7735 118.298 55.6739 118.7 55.4746C119.101 55.2753 119.414 55.0301 119.637 54.7389C119.86 54.4476 120.031 54.0644 120.15 53.5893C120.358 52.8382 120.462 51.8802 120.462 50.7153Z"
        fill="white" />
    <path
        d="M138.653 42.1164V56.8311C138.653 57.3369 138.504 57.7738 138.207 58.1416C137.909 58.4942 137.56 58.6704 137.158 58.6704C136.132 58.6704 135.292 58.0573 134.638 56.8311L129.151 47.9793V58.4865H126.051V42.1164H129.039L135.552 52.8306V42.1164H138.653Z"
        fill="white" />
    <path
        d="M149.9 52.1408H152.777C152.777 54.2254 152.271 55.8271 151.26 56.9461C150.249 58.065 148.821 58.6245 146.978 58.6245C142.918 58.6245 140.888 56.1643 140.888 51.2441V49.8646C140.888 45.9867 141.929 43.5572 144.011 42.5763C144.829 42.1777 145.818 41.9785 146.978 41.9785C148.673 41.9785 150.048 42.4613 151.104 43.4269C152.175 44.3773 152.71 45.7568 152.71 47.5655H149.81C149.647 46.6611 149.357 45.979 148.94 45.5192C148.524 45.0594 147.87 44.8294 146.978 44.8294C145.937 44.8294 145.163 45.1667 144.658 45.8411C144.301 46.3162 144.093 47.1286 144.033 48.2782C144.004 48.6461 143.989 49.1442 143.989 49.7727V51.1981C143.989 52.9608 144.227 54.1641 144.702 54.8078C145.193 55.4516 145.952 55.7735 146.978 55.7735C148.018 55.7735 148.732 55.4823 149.119 54.8998C149.52 54.302 149.781 53.3824 149.9 52.1408Z"
        fill="white" />
    <path
        d="M167.218 58.4865H164.117V51.8649H158.296V58.4865H155.195V42.1164H158.296V49.0369H164.117V42.1164H167.218V58.4865Z"
        fill="white" />
    <path
        d="M182.732 58.4865H179.498L178.606 55.6585H173.275L172.405 58.4865H169.171L174.256 43.4959C174.48 42.9748 174.725 42.6146 174.993 42.4153C175.275 42.2161 175.617 42.1164 176.019 42.1164C176.42 42.1164 176.74 42.2084 176.978 42.3923C177.23 42.5763 177.454 42.9441 177.647 43.4959L182.732 58.4865ZM177.892 52.9685L176.019 46.4848L174.056 52.9685H177.892Z"
        fill="white" />
    <path d="M188.012 58.4865H184.912V42.1164H188.012V58.4865Z" fill="white" />
    <path
        d="M204.087 42.1164V56.8311C204.087 57.3369 203.938 57.7738 203.641 58.1416C203.343 58.4942 202.994 58.6704 202.592 58.6704C201.566 58.6704 200.726 58.0573 200.072 56.8311L194.585 47.9793V58.4865H191.485V42.1164H194.473L200.986 52.8306V42.1164H204.087Z"
        fill="white" />
    <path
        d="M123.652 71.7067L120.796 77.9145C120.38 78.7422 119.86 79.156 119.235 79.156C118.625 79.156 118.112 78.7192 117.696 77.8455L114.796 71.7067V81.4782H111.696V65.1081H114.752L119.235 74.5577L123.696 65.1081H126.752V81.4782H123.652V71.7067Z"
        fill="white" />
    <path
        d="M142.043 81.4782H138.809L137.917 78.6502H132.586L131.716 81.4782H128.482L133.567 66.4876C133.79 65.9665 134.036 65.6063 134.303 65.407C134.586 65.2077 134.928 65.1081 135.329 65.1081C135.731 65.1081 136.05 65.2001 136.288 65.384C136.541 65.568 136.764 65.9358 136.958 66.4876L142.043 81.4782ZM137.203 75.9602L135.329 69.4765L133.366 75.9602H137.203Z"
        fill="white" />
    <path
        d="M156.2 73.2242L156.222 74.9945C156.163 76.1135 156.029 77.0561 155.821 77.8225C155.613 78.5889 155.204 79.2863 154.594 79.9148C153.583 80.9571 152.111 81.4782 150.178 81.4782C147.903 81.4782 146.341 81.1716 145.494 80.5585C144.646 79.9301 144.222 78.8035 144.222 77.1788V65.1081H150.401C152.185 65.1081 153.583 65.6293 154.594 66.6716C155.412 67.5146 155.895 68.5415 156.044 69.7524C156.148 70.6108 156.2 71.768 156.2 73.2242ZM152.43 77.6156C152.713 77.2631 152.891 76.7802 152.966 76.1671C153.055 75.5387 153.1 74.5654 153.1 73.2472C153.1 71.929 153.055 70.9787 152.966 70.3962C152.891 69.7984 152.713 69.3233 152.43 68.9707C151.895 68.2963 151.122 67.9591 150.111 67.9591H147.323V77.0178C147.323 77.6309 147.523 78.0524 147.925 78.2824C148.326 78.5123 149.04 78.6272 150.066 78.6272C151.107 78.6272 151.895 78.29 152.43 77.6156Z"
        fill="white" />
    <path
        d="M171.305 65.1081V79.8228C171.305 80.3286 171.156 80.7655 170.858 81.1333C170.561 81.4859 170.212 81.6621 169.81 81.6621C168.784 81.6621 167.944 81.049 167.29 79.8228L161.803 70.971V81.4782H158.702V65.1081H161.691L168.204 75.8222V65.1081H171.305Z"
        fill="white" />
    <path
        d="M184.982 81.4782H179.362C177.577 81.4782 176.321 81.164 175.592 80.5355C174.878 79.8918 174.521 78.7652 174.521 77.1558V65.1081H184.982V67.9591H177.622V71.7987H182.774L182.551 74.6497H177.622V76.9258C177.622 77.5696 177.763 78.0141 178.046 78.2594C178.328 78.5046 178.841 78.6272 179.585 78.6272H184.982V81.4782Z"
        fill="white" />
    <path
        d="M198.733 76.6499C198.733 78.1981 198.183 79.4166 197.082 80.3056C195.982 81.1793 194.577 81.6162 192.867 81.6162C191.513 81.6162 190.205 81.233 188.941 80.4666C188.316 80.068 187.803 79.5086 187.402 78.7882C187 78.0524 186.8 77.2171 186.8 76.2821L189.61 76.1441C189.61 76.9718 189.952 77.6156 190.636 78.0754C191.32 78.5353 192.078 78.7652 192.911 78.7652C194.77 78.7652 195.699 78.0908 195.699 76.7419C195.699 75.6383 195.067 74.9869 193.803 74.7876L191.216 74.5117C189.922 74.3125 188.896 73.8373 188.138 73.0862C187.38 72.3352 187 71.2546 187 69.8444C187 68.4342 187.543 67.2693 188.629 66.3497C189.714 65.43 191.082 64.9702 192.733 64.9702C194.398 64.9702 195.736 65.407 196.748 66.2807C197.759 67.139 198.264 68.2503 198.264 69.6145L195.499 69.7524C195.246 68.4189 194.376 67.7522 192.889 67.7522C191.982 67.7522 191.268 67.9514 190.748 68.3499C190.242 68.7485 189.989 69.2236 189.989 69.7754C189.989 70.3119 190.175 70.7411 190.547 71.063C190.919 71.3695 191.38 71.5611 191.93 71.6378L194.473 71.9137C197.313 72.3122 198.733 73.8909 198.733 76.6499Z"
        fill="white" />
    <path
        d="M211.911 76.6499C211.911 78.1981 211.361 79.4166 210.261 80.3056C209.16 81.1793 207.755 81.6162 206.045 81.6162C204.692 81.6162 203.383 81.233 202.119 80.4666C201.495 80.068 200.982 79.5086 200.58 78.7882C200.179 78.0524 199.978 77.2171 199.978 76.2821L202.788 76.1441C202.788 76.9718 203.13 77.6156 203.814 78.0754C204.498 78.5353 205.257 78.7652 206.089 78.7652C207.948 78.7652 208.878 78.0908 208.878 76.7419C208.878 75.6383 208.246 74.9869 206.982 74.7876L204.394 74.5117C203.101 74.3125 202.075 73.8373 201.316 73.0862C200.558 72.3352 200.179 71.2546 200.179 69.8444C200.179 68.4342 200.721 67.2693 201.807 66.3497C202.892 65.43 204.26 64.9702 205.911 64.9702C207.576 64.9702 208.915 65.407 209.926 66.2807C210.937 67.139 211.443 68.2503 211.443 69.6145L208.677 69.7524C208.424 68.4189 207.554 67.7522 206.067 67.7522C205.16 67.7522 204.446 67.9514 203.926 68.3499C203.42 68.7485 203.168 69.2236 203.168 69.7754C203.168 70.3119 203.353 70.7411 203.725 71.063C204.097 71.3695 204.558 71.5611 205.108 71.6378L207.651 71.9137C210.491 72.3122 211.911 73.8909 211.911 76.6499Z"
        fill="white" />
    <path
        d="M53.2705 52.6959L39.6305 52.6959C38.787 52.6959 38.1083 51.9963 38.1083 51.1269V50.8076C38.1083 49.945 38.787 49.2386 39.6305 49.2386L54.6147 49.2386C54.0876 50.3458 53.6395 51.5004 53.2771 52.6891L53.2705 52.6959Z"
        fill="white" />
    <path
        d="M52.1503 58.9039H33.5221C32.6787 58.9039 32 58.2043 32 57.3349L32 57.0157C32 56.1463 32.6787 55.4467 33.5221 55.4467H52.5852C52.3678 56.5674 52.2162 57.7221 52.1503 58.8971V58.9039Z"
        fill="white" />
    <path
        d="M54.6081 71.7412H39.6305C38.787 71.7412 38.1083 71.0416 38.1083 70.1722V69.853C38.1083 68.9904 38.787 68.284 39.6305 68.284H53.2705C53.6395 69.4726 54.081 70.6273 54.6081 71.7344V71.7412Z"
        fill="white" />
    <path
        d="M52.5852 65.5401H33.5221C32.6787 65.5401 32 64.8405 32 63.971L32 63.6518C32 62.7824 32.6787 62.0828 33.5221 62.0828H52.1503C52.2228 63.2579 52.3678 64.4058 52.5852 65.5333V65.5401Z"
        fill="white" />
    <path
        d="M98.3946 61.5119H91.6075C91.5219 64.2696 91.0804 66.9389 90.3292 69.4656C92.161 69.9886 93.5382 71.3471 94.5728 73.0791C96.8131 69.7713 98.2035 65.8046 98.388 61.5119H98.3946Z"
        fill="white" />
    <path
        d="M89.6307 59.4744C89.5384 56.7914 89.0904 54.1968 88.326 51.7516C85.7232 51.6565 83.2192 50.4067 80.3397 48.9668C75.5426 46.5623 69.7637 43.6756 61.3754 45.5978C58.0807 49.286 55.9919 54.1289 55.7547 59.4811L89.6241 59.4812L89.6307 59.4744Z"
        fill="white" />
    <path
        d="M88.3261 69.2418C89.0904 66.7898 89.5385 64.202 89.6242 61.519H55.7547C55.9919 66.8645 58.0808 71.7142 61.3755 75.4024C69.7638 77.3246 75.5426 74.4311 80.3397 72.0334C83.2193 70.5935 85.7232 69.3437 88.3261 69.2486V69.2418Z"
        fill="white" />
    <path
        d="M90.3358 51.5208C91.087 54.0475 91.5219 56.7169 91.6141 59.4745L98.4012 59.4745C98.2101 55.1818 96.8263 51.2152 94.5859 47.9074C93.5514 49.6326 92.1742 50.991 90.3424 51.5208H90.3358Z"
        fill="white" />
    <path
        d="M81.2095 47.1329C83.5553 48.308 85.6244 49.3404 87.5748 49.6325C85.8813 45.3805 83.2192 41.638 79.8784 38.697C78.9625 38.5747 78.0268 38.5 77.0713 38.5C72.1754 38.5 67.6749 40.2048 64.0705 43.0576C71.411 42.2357 76.7155 44.8847 81.2029 47.1397L81.2095 47.1329Z"
        fill="white" />
    <path
        d="M87.5748 71.3607C85.6244 71.6528 83.5553 72.6852 81.2095 73.8603C76.7221 76.1085 71.4176 78.7575 64.0771 77.9424C67.6749 80.7952 72.182 82.5 77.0779 82.5C78.0268 82.5 78.9625 82.4321 79.885 82.303C83.2258 79.3552 85.8813 75.6195 87.5814 71.3675L87.5748 71.3607Z"
        fill="white" />
    <path
        d="M93.268 74.8182C92.2994 72.9164 91.1001 71.7753 89.6834 71.4085C88.2996 75.1578 86.2174 78.5607 83.608 81.4406C87.4035 80.184 90.7311 77.8611 93.268 74.8182Z"
        fill="white" />
    <path
        d="M93.268 46.1686C90.7311 43.1256 87.4035 40.8027 83.608 39.5461C86.2174 42.4328 88.2996 45.8289 89.6834 49.5783C91.1001 49.2115 92.2994 48.0704 93.268 46.1686Z"
        fill="white" />
    <!-- prize -->
    <text style="font-size:25px;fill:white;font-family:Arial" x="545" y="69" >Prize</text>
    <text style="font-size:35px;fill:#86EFAC;font-family:Arial;font-weight:800" x="640" y="74">$1000.00</text>
    <text style="font-weight:800;font-size:20px;font-family:Arial;fill:#e2e8f0" text-anchor="middle" x="425" y="1298">NFT ID: 23 - My Public Pool</text>
    <text style="font-weight:600;font-size:18px;font-family:Arial;fill:#e2e8f0" text-anchor="middle" x="27" y="660" transform="rotate(270, 27, 660)">perfectpool.io</text>
    <text style="font-weight:600;font-size:18px;font-family:Arial;fill:#e2e8f0" text-anchor="middle" x="823" y="660" transform="rotate(90, 823, 660)">Pool ID: 2</text>
    <!-- BEGIN EAST -->
    <text style="font-size:14px;fill:#FBBF24;font-family:Arial;font-weight:800" text-anchor="end" x="421" y="163">East</text>
    <text style="font-size:14px;fill:white;font-family:Arial;font-weight:800" x="72" y="163">Round 1</text>
    <rect x="72" y="172" width="349" height="166" rx="8" fill="#202738" fill-opacity="0.34" />
    <text style="font-size:14px;fill:white;font-family:Arial;font-weight:800" x="72" y="372">Round 2</text>
    <rect x="72" y="381" width="349" height="87" rx="8" fill="#202738" fill-opacity="0.34" />
    <text style="font-size:14px;fill:white;font-family:Arial;font-weight:800" x="72" y="502">Round 3</text>
    <rect x="72" y="511" width="349" height="47.5" rx="8" fill="#202738" fill-opacity="0.34" />
    <!-- Round 1 -->
    <rect x="80" y="180" width="162.5" height="31.5" rx="8" fill="url(#col1_red)" fill-opacity="0.8" id="rect36" />
    <text style="font-size:14px;fill:#E2E8F0;font-family:Arial;font-weight:600" text-anchor="middle" x="161.5" y="200"
        id="text36">PLYR</text>
    <rect x="250.5" y="180" width="162.5" height="31.5" rx="8" fill="url(#col2_red)" fill-opacity="0.8" id="rect37" />
    <text style="font-size:14px;fill:#E2E8F0;font-family:Arial;font-weight:600" text-anchor="middle" x="332" y="200"
        id="text37">PLYR</text>
    <rect x="80" y="219.5" width="162.5" height="31.5" rx="8" fill="url(#col1_green)" fill-opacity="0.8" id="rect38" />
    <text style="font-size:14px;fill:#E2E8F0;font-family:Arial;font-weight:600" text-anchor="middle" x="161.5" y="240"
        id="text38">PLYR</text>
    <rect x="250.5" y="219.5" width="162.5" height="31.5" rx="8" fill="url(#col2_green)" fill-opacity="0.8"
        id="rect39" />
    <text style="font-size:14px;fill:#E2E8F0;font-family:Arial;font-weight:600" text-anchor="middle" x="332" y="240"
        id="text39">PLYR</text>
    <rect x="80" y="259" width="162.5" height="31.5" rx="8" fill="#334155" id="rect40" />
    <text style="font-size:14px;fill:#94A3B8;font-family:Arial;font-weight:600" text-anchor="middle" x="161.5" y="280"
        id="text40">PLYR</text>
    <rect x="250.5" y="259" width="162.5" height="31.5" rx="8" fill="#334155" id="rect41" />
    <text style="font-size:14px;fill:#94A3B8;font-family:Arial;font-weight:600" text-anchor="middle" x="332" y="280"
        id="text41">PLYR</text>
    <rect x="80" y="298.5" width="162.5" height="31.5" rx="8" fill="#334155" id="rect42" />
    <text style="font-size:14px;fill:#94A3B8;font-family:Arial;font-weight:600" text-anchor="middle" x="161.5" y="319"
        id="text42">PLYR</text>
    <rect x="250.5" y="298.5" width="162.5" height="31.5" rx="8" fill="#334155" id="rect43" />
    <text style="font-size:14px;fill:#94A3B8;font-family:Arial;font-weight:600" text-anchor="middle" x="332" y="319"
        id="text43">PLYR</text>
    <!-- Round 2 -->
    <rect x="80" y="389" width="162.5" height="31.5" rx="8" fill="#334155" id="rect44" />
    <text style="font-size:14px;fill:#94A3B8;font-family:Arial;font-weight:600" text-anchor="middle" x="161.5" y="409"
        id="text44">PLYR</text>
    <rect x="250.5" y="389" width="162.5" height="31.5" rx="8" fill="#334155" id="rect45" />
    <text style="font-size:14px;fill:#94A3B8;font-family:Arial;font-weight:600" text-anchor="middle" x="332" y="409"
        id="text45">PLYR</text>
    <rect x="80" y="428.5" width="162.5" height="31.5" rx="8" fill="#334155" id="rect46" />
    <text style="font-size:14px;fill:#94A3B8;font-family:Arial;font-weight:600" text-anchor="middle" x="161.5" y="449"
        id="text46">PLYR</text>
    <rect x="250.5" y="428.5" width="162.5" height="31.5" rx="8" fill="#334155" id="rect47" />
    <text style="font-size:14px;fill:#94A3B8;font-family:Arial;font-weight:600" text-anchor="middle" x="332" y="449"
        id="text47">PLYR</text>
    <!-- Round 3 -->
    <rect x="80" y="519" width="162.5" height="31.5" rx="8" fill="#334155" id="rect48" />
    <text style="font-size:14px;fill:#94A3B8;font-family:Arial;font-weight:600" text-anchor="middle" x="161.5" y="539"
        id="text48">PLYR</text>
    <rect x="250.5" y="519" width="162.5" height="31.5" rx="8" fill="#334155" id="rect49" />
    <text style="font-size:14px;fill:#94A3B8;font-family:Arial;font-weight:600" text-anchor="middle" x="332" y="539"
        id="text49">PLYR</text>
    <!-- END EAST -->
    <!-- BEGIN WEST -->
    <text style="font-size:14px;fill:#FBBF24;font-family:Arial;font-weight:800" text-anchor="end" x="778" y="163">West</text>
    <text style="font-size:14px;fill:white;font-family:Arial;font-weight:800" x="429" y="163">Round 1</text>
    <rect x="429" y="172" width="349" height="166" rx="8" fill="#202738" fill-opacity="0.34" />
    <text style="font-size:14px;fill:white;font-family:Arial;font-weight:800" x="429" y="372">Round 2</text>
    <rect x="429" y="381" width="349" height="87" rx="8" fill="#202738" fill-opacity="0.34" />
    <text style="font-size:14px;fill:white;font-family:Arial;font-weight:800" x="429" y="502">Round 3</text>
    <rect x="429" y="511" width="349" height="47.5" rx="8" fill="#202738" fill-opacity="0.34" />
    <!-- Round 1 -->
    <rect x="437" y="180" width="162.5" height="31.5" rx="8" fill="url(#col3_red)" fill-opacity="0.8" id="rect56" />
    <text style="font-size:14px;fill:#E2E8F0;font-family:Arial;font-weight:600" text-anchor="middle" x="518.5" y="200"
        id="text56">PLYR</text>
    <rect x="607.5" y="180" width="162.5" height="31.5" rx="8" fill="url(#col4_red)" fill-opacity="0.8" id="rect57" />
    <text style="font-size:14px;fill:#E2E8F0;font-family:Arial;font-weight:600" text-anchor="middle" x="689" y="200"
        id="text57">PLYR</text>
    <rect x="437" y="219.5" width="162.5" height="31.5" rx="8" fill="url(#col3_green)" fill-opacity="0.8" id="rect58" />
    <text style="font-size:14px;fill:#E2E8F0;font-family:Arial;font-weight:600" text-anchor="middle" x="518.5" y="240"
        id="text58">PLYR</text>
    <rect x="607.5" y="219.5" width="162.5" height="31.5" rx="8" fill="url(#col4_green)" fill-opacity="0.8"
        id="rect59" />
    <text style="font-size:14px;fill:#E2E8F0;font-family:Arial;font-weight:600" text-anchor="middle" x="689" y="240"
        id="text59">PLYR</text>
    <rect x="437" y="259" width="162.5" height="31.5" rx="8" fill="#334155" id="rect60" />
    <text style="font-size:14px;fill:#94A3B8;font-family:Arial;font-weight:600" text-anchor="middle" x="518.5" y="280"
        id="text60">PLYR</text>
    <rect x="607.5" y="259" width="162.5" height="31.5" rx="8" fill="#334155" id="rect61" />
    <text style="font-size:14px;fill:#94A3B8;font-family:Arial;font-weight:600" text-anchor="middle" x="689" y="280"
        id="text61">PLYR</text>
    <rect x="437" y="298.5" width="162.5" height="31.5" rx="8" fill="#334155" id="rect62" />
    <text style="font-size:14px;fill:#94A3B8;font-family:Arial;font-weight:600" text-anchor="middle" x="518.5" y="319"
        id="text62">PLYR</text>
    <rect x="607.5" y="298.5" width="162.5" height="31.5" rx="8" fill="#334155" id="rect63" />
    <text style="font-size:14px;fill:#94A3B8;font-family:Arial;font-weight:600" text-anchor="middle" x="689" y="319"
        id="text63">PLYR</text>
    <!-- Round 2 -->
    <rect x="437" y="389" width="162.5" height="31.5" rx="8" fill="#334155" id="rect64" />
    <text style="font-size:14px;fill:#94A3B8;font-family:Arial;font-weight:600" text-anchor="middle" x="518.5" y="409"
        id="text64">PLYR</text>
    <rect x="607.5" y="389" width="162.5" height="31.5" rx="8" fill="#334155" id="rect65" />
    <text style="font-size:14px;fill:#94A3B8;font-family:Arial;font-weight:600" text-anchor="middle" x="689" y="409"
        id="text65">PLYR</text>
    <rect x="437" y="428.5" width="162.5" height="31.5" rx="8" fill="#334155" id="rect66" />
    <text style="font-size:14px;fill:#94A3B8;font-family:Arial;font-weight:600" text-anchor="middle" x="518.5" y="449"
        id="text66">PLYR</text>
    <rect x="607.5" y="428.5" width="162.5" height="31.5" rx="8" fill="#334155" id="rect67" />
    <text style="font-size:14px;fill:#94A3B8;font-family:Arial;font-weight:600" text-anchor="middle" x="689" y="449"
        id="text67">PLYR</text>
    <!-- Round 3 -->
    <rect x="437" y="519" width="162.5" height="31.5" rx="8" fill="#334155" id="rect68" />
    <text style="font-size:14px;fill:#94A3B8;font-family:Arial;font-weight:600" text-anchor="middle" x="518.5" y="539"
        id="text68">PLYR</text>
    <rect x="607.5" y="519" width="162.5" height="31.5" rx="8" fill="#334155" id="rect69" />
    <text style="font-size:14px;fill:#94A3B8;font-family:Arial;font-weight:600" text-anchor="middle" x="689" y="539"
        id="text69">PLYR</text>
    <!-- END WEST -->
    <!-- BEGIN SOUTH -->
    <text style="font-size:14px;fill:#FBBF24;font-family:Arial;font-weight:800" text-anchor="end" x="421" y="673">South</text>
    <text style="font-size:14px;fill:white;font-family:Arial;font-weight:800" x="72" y="673">Round 1</text>
    <rect x="72" y="682" width="349" height="166" rx="8" fill="#202738" fill-opacity="0.34" />
    <text style="font-size:14px;fill:white;font-family:Arial;font-weight:800" x="72" y="882">Round 2</text>
    <rect x="72" y="891" width="349" height="87" rx="8" fill="#202738" fill-opacity="0.34" />
    <text style="font-size:14px;fill:white;font-family:Arial;font-weight:800" x="72" y="1012">Round 3</text>
    <rect x="72" y="1021" width="349" height="47.5" rx="8" fill="#202738" fill-opacity="0.34" />
    <!-- Round 1 -->
    <rect x="80" y="690" width="162.5" height="31.5" rx="8" fill="url(#col1_red)" fill-opacity="0.8" id="rect76" />
    <text style="font-size:14px;fill:#E2E8F0;font-family:Arial;font-weight:600" text-anchor="middle" x="161.5" y="710"
        id="text76">PLYR</text>
    <rect x="250.5" y="690" width="162.5" height="31.5" rx="8" fill="url(#col2_red)" fill-opacity="0.8" id="rect77" />
    <text style="font-size:14px;fill:#E2E8F0;font-family:Arial;font-weight:600" text-anchor="middle" x="332" y="710"
        id="text77">PLYR</text>
    <rect x="80" y="729.5" width="162.5" height="31.5" rx="8" fill="url(#col1_green)" fill-opacity="0.8" id="rect78" />
    <text style="font-size:14px;fill:#E2E8F0;font-family:Arial;font-weight:600" text-anchor="middle" x="161.5" y="750"
        id="text78">PLYR</text>
    <rect x="250.5" y="729.5" width="162.5" height="31.5" rx="8" fill="url(#col2_green)" fill-opacity="0.8"
        id="rect79" />
    <text style="font-size:14px;fill:#E2E8F0;font-family:Arial;font-weight:600" text-anchor="middle" x="332" y="750"
        id="text79">PLYR</text>
    <rect x="80" y="769" width="162.5" height="31.5" rx="8" fill="#334155" id="rect80" />
    <text style="font-size:14px;fill:#94A3B8;font-family:Arial;font-weight:600" text-anchor="middle" x="161.5" y="790"
        id="text80">PLYR</text>
    <rect x="250.5" y="769" width="162.5" height="31.5" rx="8" fill="#334155" id="rect81" />
    <text style="font-size:14px;fill:#94A3B8;font-family:Arial;font-weight:600" text-anchor="middle" x="332" y="790"
        id="text81">PLYR</text>
    <rect x="80" y="808.5" width="162.5" height="31.5" rx="8" fill="#334155" id="rect82" />
    <text style="font-size:14px;fill:#94A3B8;font-family:Arial;font-weight:600" text-anchor="middle" x="161.5" y="829"
        id="text82">PLYR</text>
    <rect x="250.5" y="808.5" width="162.5" height="31.5" rx="8" fill="#334155" id="rect83" />
    <text style="font-size:14px;fill:#94A3B8;font-family:Arial;font-weight:600" text-anchor="middle" x="332" y="829"
        id="text83">PLYR</text>
    <!-- Round 2 -->
    <rect x="80" y="899" width="162.5" height="31.5" rx="8" fill="#334155" id="rect84" />
    <text style="font-size:14px;fill:#94A3B8;font-family:Arial;font-weight:600" text-anchor="middle" x="161.5" y="919"
        id="text84">PLYR</text>
    <rect x="250.5" y="899" width="162.5" height="31.5" rx="8" fill="#334155" id="rect85" />
    <text style="font-size:14px;fill:#94A3B8;font-family:Arial;font-weight:600" text-anchor="middle" x="332" y="919"
        id="text85">PLYR</text>
    <rect x="80" y="938.5" width="162.5" height="31.5" rx="8" fill="#334155" id="rect86" />
    <text style="font-size:14px;fill:#94A3B8;font-family:Arial;font-weight:600" text-anchor="middle" x="161.5" y="959"
        id="text86">PLYR</text>
    <rect x="250.5" y="938.5" width="162.5" height="31.5" rx="8" fill="#334155" id="rect87" />
    <text style="font-size:14px;fill:#94A3B8;font-family:Arial;font-weight:600" text-anchor="middle" x="332" y="959"
        id="text87">PLYR</text>
    <!-- Round 3 -->
    <rect x="80" y="1029" width="162.5" height="31.5" rx="8" fill="#334155" id="rect88" />
    <text style="font-size:14px;fill:#94A3B8;font-family:Arial;font-weight:600" text-anchor="middle" x="161.5" y="1049"
        id="text88">PLYR</text>
    <rect x="250.5" y="1029" width="162.5" height="31.5" rx="8" fill="#334155" id="rect89" />
    <text style="font-size:14px;fill:#94A3B8;font-family:Arial;font-weight:600" text-anchor="middle" x="332" y="1049"
        id="text89">PLYR</text>
    <!-- END SOUTH -->
    <!-- BEGIN MIDWEST -->
    <text style="font-size:14px;fill:#FBBF24;font-family:Arial;font-weight:800" text-anchor="end" x="778" y="673">Midwest</text>
    <text style="font-size:14px;fill:white;font-family:Arial;font-weight:800" x="429" y="673">Round 1</text>
    <rect x="429" y="682" width="349" height="166" rx="8" fill="#202738" fill-opacity="0.34" />
    <text style="font-size:14px;fill:white;font-family:Arial;font-weight:800" x="429" y="882">Round 2</text>
    <rect x="429" y="891" width="349" height="87" rx="8" fill="#202738" fill-opacity="0.34" />
    <text style="font-size:14px;fill:white;font-family:Arial;font-weight:800" x="429" y="1012">Round3</text>
    <rect x="429" y="1021" width="349" height="47.5" rx="8" fill="#202738" fill-opacity="0.34" />
    <!-- Round 1 -->
    <rect x="437" y="690" width="162.5" height="31.5" rx="8" fill="url(#col3_red)" fill-opacity="0.8" id="rect94" />
    <text style="font-size:14px;fill:#E2E8F0;font-family:Arial;font-weight:600" text-anchor="middle" x="518.5" y="710"
        id="text94">PLYR</text>
    <rect x="607.5" y="690" width="162.5" height="31.5" rx="8" fill="url(#col4_red)" fill-opacity="0.8" id="rect95" />
    <text style="font-size:14px;fill:#E2E8F0;font-family:Arial;font-weight:600" text-anchor="middle" x="689" y="710"
        id="text95">PLYR</text>
    <rect x="437" y="729.5" width="162.5" height="31.5" rx="8" fill="url(#col3_green)" fill-opacity="0.8" id="rect96" />
    <text style="font-size:14px;fill:#E2E8F0;font-family:Arial;font-weight:600" text-anchor="middle" x="518.5" y="750"
        id="text96">PLYR</text>
    <rect x="607.5" y="729.5" width="162.5" height="31.5" rx="8" fill="url(#col4_green)" fill-opacity="0.8"
        id="rect97" />
    <text style="font-size:14px;fill:#E2E8F0;font-family:Arial;font-weight:600" text-anchor="middle" x="689" y="750"
        id="text97">PLYR</text>
    <rect x="437" y="769" width="162.5" height="31.5" rx="8" fill="#334155" id="rect98" />
    <text style="font-size:14px;fill:#94A3B8;font-family:Arial;font-weight:600" text-anchor="middle" x="518.5" y="790"
        id="text98">PLYR</text>
    <rect x="607.5" y="769" width="162.5" height="31.5" rx="8" fill="#334155" id="rect99" />
    <text style="font-size:14px;fill:#94A3B8;font-family:Arial;font-weight:600" text-anchor="middle" x="689" y="790"
        id="text99">PLYR</text>
    <rect x="437" y="808.5" width="162.5" height="31.5" rx="8" fill="#334155" id="rect100" />
    <text style="font-size:14px;fill:#94A3B8;font-family:Arial;font-weight:600" text-anchor="middle" x="518.5" y="829"
        id="text100">PLYR</text>
    <rect x="607.5" y="808.5" width="162.5" height="31.5" rx="8" fill="#334155" id="rect101" />
    <text style="font-size:14px;fill:#94A3B8;font-family:Arial;font-weight:600" text-anchor="middle" x="689" y="829"
        id="text101">PLYR</text>
    <!-- Round 2 -->
    <rect x="437" y="899" width="162.5" height="31.5" rx="8" fill="#334155" id="rect102" />
    <text style="font-size:14px;fill:#94A3B8;font-family:Arial;font-weight:600" text-anchor="middle" x="518.5" y="919"
        id="text102">PLYR</text>
    <rect x="607.5" y="899" width="162.5" height="31.5" rx="8" fill="#334155" id="rect103" />
    <text style="font-size:14px;fill:#94A3B8;font-family:Arial;font-weight:600" text-anchor="middle" x="689" y="919"
        id="text103">PLYR</text>
    <rect x="437" y="938.5" width="162.5" height="31.5" rx="8" fill="#334155" id="rect104" />
    <text style="font-size:14px;fill:#94A3B8;font-family:Arial;font-weight:600" text-anchor="middle" x="518.5" y="959"
        id="text104">PLYR</text>
    <rect x="607.5" y="938.5" width="162.5" height="31.5" rx="8" fill="#334155" id="rect105" />
    <text style="font-size:14px;fill:#94A3B8;font-family:Arial;font-weight:600" text-anchor="middle" x="689" y="959"
        id="text105">PLYR</text>
    <!-- Round 3 -->
    <rect x="437" y="1029" width="162.5" height="31.5" rx="8" fill="#334155" id="rect106" />
    <text style="font-size:14px;fill:#94A3B8;font-family:Arial;font-weight:600" text-anchor="middle" x="518.5" y="1049"
        id="text106">PLYR</text>
    <rect x="607.5" y="1029" width="162.5" height="31.5" rx="8" fill="#334155" id="rect107" />
    <text style="font-size:14px;fill:#94A3B8;font-family:Arial;font-weight:600" text-anchor="middle" x="689" y="1049"
        id="text107">PLYR</text>
    <!-- END MIDWEST -->
    <!-- FINAL FOUR -->
    <rect x="80" y="609.5" width="162.5" height="31.5" rx="8" fill="#334155" id="rect50" />
    <text style="font-size:14px;fill:#94A3B8;font-family:Arial;font-weight:600" text-anchor="middle" x="161.5" y="629.5"
        id="text50">PLYR</text>
    <rect x="250.5" y="609.5" width="162.5" height="31.5" rx="8" fill="#334155" id="rect51" />
    <text style="font-size:14px;fill:#94A3B8;font-family:Arial;font-weight:600" text-anchor="middle" x="332" y="629.5"
        id="text51">PLYR</text>
    <rect x="437" y="609.5" width="162.5" height="31.5" rx="8" fill="#334155" id="rect70" />
    <text style="font-size:14px;fill:#94A3B8;font-family:Arial;font-weight:600" text-anchor="middle" x="518.5" y="629.5"
        id="text70">PLYR</text>
    <rect x="607.5" y="609.5" width="162.5" height="31.5" rx="8" fill="#334155" id="rect71" />
    <text style="font-size:14px;fill:#94A3B8;font-family:Arial;font-weight:600" text-anchor="middle" x="689" y="629.5"
        id="text71">PLYR</text>
    
    <text style="font-size:14px;fill:#FBBF24;font-family:Arial;font-weight:800" x="72" y="592">Final Four</text>
    <rect x="72" y="601.5" width="349" height="47.5" rx="8" fill="#202738" fill-opacity="0.34" />
    <text style="font-size:14px;fill:#FBBF24;font-family:Arial;font-weight:800" x="429" y="592">Final Four</text>
    <rect x="429" y="601.5" width="349" height="47.5" rx="8" fill="#202738" fill-opacity="0.34" />
    <!-- <rect x="80" y="1119.5" width="333" height="31.5" rx="8" fill="#334155" /> -->
    <rect x="80" y="1119.5" width="333" height="31.5" rx="8" fill="url(#col1mid_red)" fill-opacity="0.8" id="rect110" />
    <text style="font-size:14px;fill:#E2E8F0;font-family:Arial;font-weight:600" text-anchor="middle" x="246.5"
        y="1142.25" id="text110">PLYR</text>
    <!-- <rect x="437" y="1119.5" width="333" height="31.5" rx="8" fill="#334155" /> -->
    <rect x="437" y="1119.5" width="333" height="31.5" rx="8" fill="url(#col2mid_red)" fill-opacity="0.8"
        id="rect111" />
    <text style="font-size:14px;fill:#E2E8F0;font-family:Arial;font-weight:600" text-anchor="middle" x="603.5"
        y="1142.25" id="text111">PLYR</text>
    <!-- END FINAL FOUR -->
    <text style="font-size:14px;fill:#FBBF24;font-family:Arial;font-weight:800" text-anchor="end" x="778" y="1102">Finals</text>
    <text style="font-size:14px;fill:white;font-family:Arial;font-weight:800" x="72" y="1102">Round 1</text>
    <rect x="429" y="1111.5" width="349" height="47.5" rx="8" fill="#202738" fill-opacity="0.34" />
    <rect x="72" y="1111.5" width="349" height="47.5" rx="8" fill="#202738" fill-opacity="0.34" />
    <text style="font-size:14px;fill:#FBBF24;font-family:Arial;font-weight:800" text-anchor="end" x="778" y="1179">Last Match</text>
    <text style="font-size:14px;fill:white;font-family:Arial;font-weight:800" x="72" y="1179">Round 2</text>
    <rect x="72" y="1184.75" width="706" height="47.5" rx="8" fill="#202738" fill-opacity="0.34" />
    <rect x="80" y="1192.75" width="690" height="31.5" rx="8" fill="url(#colbig_red)" fill-opacity="0.8" />
    <text style="font-size:14px;fill:#E2E8F0;font-family:Arial;font-weight:600" text-anchor="middle" x="425" y="1214"
        id="text116">PLYR</text>
    <defs>
        <linearGradient id="paint0_linear_3468_11744" x1="0" y1="0" x2="784.769" y2="294.705"
            gradientUnits="userSpaceOnUse">
            <stop offset="0.0266" stop-color="#CD5D9B" />
            <stop offset="0.9899" stop-color="#FB923C" />
        </linearGradient>
        <linearGradient id="col1_green" x1="80" y1="195.75" x2="242.5" y2="195.75" gradientUnits="userSpaceOnUse">
            <stop stop-color="#4ADE80" stop-opacity="0.75" />
            <stop offset="1" stop-color="#1c2337" stop-opacity="0.55" />
        </linearGradient>
        <linearGradient id="col1_red" x1="242.5" y1="195.75" x2="80" y2="195.75" gradientUnits="userSpaceOnUse">
            <stop stop-color="#F87171" stop-opacity="0.75" />
            <stop offset="1" stop-color="#1b2236" stop-opacity="0.55" />
        </linearGradient>
        <linearGradient id="col2_green" x1="250.5" y1="195.75" x2="413" y2="195.75" gradientUnits="userSpaceOnUse">
            <stop stop-color="#4ADE80" stop-opacity="0.75" />
            <stop offset="1" stop-color="#1c2337" stop-opacity="0.55" />
        </linearGradient>
        <linearGradient id="col2_red" x1="413" y1="195.75" x2="250.5" y2="195.75" gradientUnits="userSpaceOnUse">
            <stop stop-color="#F87171" stop-opacity="0.75" />
            <stop offset="1" stop-color="#1b2236" stop-opacity="0.55" />
        </linearGradient>
        <linearGradient id="col3_green" x1="437" y1="195.75" x2="599.5" y2="195.75" gradientUnits="userSpaceOnUse">
            <stop stop-color="#4ADE80" stop-opacity="0.75" />
            <stop offset="1" stop-color="#1c2337" stop-opacity="0.55" />
        </linearGradient>
        <linearGradient id="col3_red" x1="599.5" y1="195.75" x2="437" y2="195.75" gradientUnits="userSpaceOnUse">
            <stop stop-color="#F87171" stop-opacity="0.75" />
            <stop offset="1" stop-color="#1b2236" stop-opacity="0.55" />
        </linearGradient>
        <linearGradient id="col4_green" x1="607.5" y1="195.75" x2="770" y2="195.75" gradientUnits="userSpaceOnUse">
            <stop stop-color="#4ADE80" stop-opacity="0.75" />
            <stop offset="1" stop-color="#1c2337" stop-opacity="0.55" />
        </linearGradient>
        <linearGradient id="col4_red" x1="770" y1="195.75" x2="607.5" y2="195.75" gradientUnits="userSpaceOnUse">
            <stop stop-color="#F87171" stop-opacity="0.75" />
            <stop offset="1" stop-color="#1b2236" stop-opacity="0.55" />
        </linearGradient>
        <linearGradient id="col1mid_red" x1="340" y1="195.75" x2="70" y2="195.75" gradientUnits="userSpaceOnUse">
            <stop stop-color="#F87171" stop-opacity="0.75" />
            <stop offset="1" stop-color="#1b2236" stop-opacity="0.55" />
        </linearGradient>
        <linearGradient id="col1mid_green" x1="80" y1="195.75" x2="450" y2="195.75" gradientUnits="userSpaceOnUse">
            <stop stop-color="#4ADE80" stop-opacity="0.75" />
            <stop offset="1" stop-color="#1c2337" stop-opacity="0.55" />
        </linearGradient>
        <linearGradient id="col2mid_red" x1="700" y1="195.75" x2="420" y2="195.75" gradientUnits="userSpaceOnUse">
            <stop stop-color="#F87171" stop-opacity="0.75" />
            <stop offset="1" stop-color="#1b2236" stop-opacity="0.55" />
        </linearGradient>
        <linearGradient id="col2mid_green" x1="420" y1="195.75" x2="780" y2="195.75" gradientUnits="userSpaceOnUse">
            <stop stop-color="#4ADE80" stop-opacity="0.75" />
            <stop offset="1" stop-color="#1c2337" stop-opacity="0.55" />
        </linearGradient>
        <linearGradient id="colbig_red" x1="600" y1="195.75" x2="30" y2="195.75" gradientUnits="userSpaceOnUse">
            <stop stop-color="#F87171" stop-opacity="0.75" />
            <stop offset="1" stop-color="#1b2236" stop-opacity="0.55" />
        </linearGradient>
        <linearGradient id="colbig_green" x1="200" y1="195.75" x2="800" y2="195.75" gradientUnits="userSpaceOnUse">
            <stop stop-color="#4ADE80" stop-opacity="0.75" />
            <stop offset="1" stop-color="#1c2337" stop-opacity="0.55" />
        </linearGradient>
    </defs>
</svg>